<svg width="841" height="164" xmlns="http://www.w3.org/2000/svg" xmlns:xlink="http://www.w3.org/1999/xlink" xml:space="preserve" overflow="hidden"><defs><clipPath id="clip0"><rect x="409" y="152" width="841" height="164"/></clipPath><clipPath id="clip1"><rect x="410" y="152" width="840" height="163"/></clipPath><clipPath id="clip2"><rect x="410" y="152" width="840" height="163"/></clipPath><clipPath id="clip3"><rect x="410" y="94" width="840" height="301"/></clipPath></defs><g clip-path="url(#clip0)" transform="translate(-409 -152)"><g clip-path="url(#clip1)"><g clip-path="url(#clip2)"><g clip-path="url(#clip3)"><path d="M201.995 140.977 213.502 152.729 152.165 152.729 152.165 158.323 213.428 158.323 201.995 169.781 205.945 173.731 224.272 155.403 205.945 137.027 201.995 140.977Z" fill="#218FCF" fill-rule="nonzero" fill-opacity="1" transform="matrix(1.00402 0 0 1 410 94.7064)"/><path d="M463.609 155.403 445.282 137.027 441.331 140.977 452.838 152.729 391.501 152.729 391.501 158.323 452.765 158.323 441.331 169.781 445.282 173.731 463.609 155.403Z" fill="#218FCF" fill-rule="nonzero" fill-opacity="1" transform="matrix(1.00402 0 0 1 410 94.7064)"/><path d="M679.736 110.627 646.614 110.627 646.614 197.726 679.736 197.726" stroke="#7E8C93" stroke-width="1.84011" stroke-linecap="butt" stroke-linejoin="miter" stroke-miterlimit="10" stroke-dasharray="4.90695 2.45348" stroke-opacity="1" fill="none" fill-rule="nonzero" transform="matrix(1.00402 0 0 1 410 94.7064)"/><path d="M568.446 154.79 646.614 154.79" stroke="#7E8C93" stroke-width="1.84011" stroke-linecap="butt" stroke-linejoin="miter" stroke-miterlimit="10" stroke-dasharray="4.90695 2.45348" stroke-opacity="1" fill="none" fill-rule="nonzero" transform="matrix(1.00402 0 0 1 410 94.7064)"/><path d="M647.424 138.965 682.189 138.965" stroke="#7E8C93" stroke-width="1.84011" stroke-linecap="butt" stroke-linejoin="miter" stroke-miterlimit="10" stroke-dasharray="4.90695 2.45348" stroke-opacity="1" fill="none" fill-rule="nonzero" transform="matrix(1.00402 0 0 1 410 94.7064)"/><path d="M647.424 168.701 682.189 168.701" stroke="#7E8C93" stroke-width="1.84011" stroke-linecap="butt" stroke-linejoin="miter" stroke-miterlimit="10" stroke-dasharray="4.90695 2.45348" stroke-opacity="1" fill="none" fill-rule="nonzero" transform="matrix(1.00402 0 0 1 410 94.7064)"/><path d="M58.0247 89.2575 58.0247 92.1035 64.1094 92.1035 64.1094 94.0663 58.0247 94.0663 58.0247 97.1332 64.7473 97.1332 64.7473 99.0959 55.8657 99.0959 55.8657 87.2947 64.7473 87.2947 64.7473 89.2575 58.0247 89.2575Z" fill="#495565" fill-rule="nonzero" fill-opacity="1" transform="matrix(1.00402 0 0 1 410 94.7064)"/><path d="M73.7513 90.4597C74.2491 90.7524 74.6566 91.1769 74.9289 91.6864 75.2104 92.2323 75.3536 92.8388 75.346 93.4529L75.346 99.0959 73.3097 99.0959 73.3097 93.87C73.331 93.3241 73.1472 92.7903 72.7944 92.3734 72.6229 92.1884 72.4136 92.0424 72.1808 91.945 71.948 91.8476 71.6972 91.8013 71.445 91.8091 70.8807 91.7917 70.3299 91.9838 69.8993 92.3489 69.7035 92.5196 69.5472 92.7311 69.4413 92.9684 69.3355 93.2056 69.2825 93.463 69.2859 93.7228L69.2859 99.0959 67.2005 99.0959 67.2005 90.2144 69.2859 90.2144 69.2859 91.4166C69.5698 90.9901 69.9585 90.6437 70.4146 90.4106 70.9116 90.143 71.4693 90.0078 72.0338 90.0181 72.6354 90.01 73.2282 90.1626 73.7513 90.4597Z" fill="#495565" fill-rule="nonzero" fill-opacity="1" transform="matrix(1.00402 0 0 1 410 94.7064)"/><path d="M86.6075 87.0984 86.6075 99.0959 84.4975 99.0959 84.4975 97.6975C84.1646 98.195 83.7193 98.607 83.1972 98.8997 82.6493 99.1757 82.044 99.3185 81.4307 99.3168 80.6811 99.332 79.9451 99.118 79.3207 98.7034 78.6928 98.3027 78.1911 97.733 77.8731 97.0596 77.5019 96.2948 77.3091 95.456 77.3091 94.6061 77.3091 93.7562 77.5019 92.9174 77.8731 92.1526 78.1975 91.4835 78.698 90.9153 79.3207 90.5088 79.9522 90.1125 80.6851 89.9079 81.4307 89.9199 82.044 89.9182 82.6493 90.061 83.1972 90.337 83.7129 90.6278 84.1572 91.0301 84.4975 91.5147L84.4975 87.0984 86.6075 87.0984ZM83.786 96.7161C84.2318 96.1216 84.473 95.3983 84.473 94.6552 84.473 93.912 84.2318 93.1887 83.786 92.5942 83.5544 92.3445 83.2735 92.1457 82.9609 92.0106 82.6483 91.8754 82.311 91.8069 81.9704 91.8091 81.6257 91.8035 81.2837 91.8702 80.9667 92.0056 80.6497 92.1408 80.3646 92.3415 80.1303 92.5942 79.6686 93.1821 79.4178 93.9078 79.4178 94.6552 79.4178 95.4025 79.6686 96.1282 80.1303 96.7161 80.3624 96.9732 80.6465 97.1786 80.9635 97.3179 81.2808 97.4575 81.624 97.5284 81.9704 97.5257 82.3142 97.5348 82.6557 97.4666 82.97 97.3265 83.284 97.1864 83.563 96.9779 83.786 96.7161Z" fill="#495565" fill-rule="nonzero" fill-opacity="1" transform="matrix(1.00402 0 0 1 410 94.7064)"/><path d="M96.7897 98.6298C96.01 98.198 95.3711 97.5505 94.9496 96.7651 94.4905 95.94 94.254 95.0102 94.2626 94.0663L94.2626 87.2947 96.4216 87.2947 96.4216 93.9927C96.4064 94.5967 96.5414 95.1954 96.8142 95.7347 97.0659 96.2207 97.4374 96.6346 97.8937 96.9369 98.3646 97.2301 98.9092 97.3834 99.464 97.3785 100.027 97.3895 100.582 97.236 101.059 96.9369 101.529 96.6432 101.91 96.2276 102.163 95.7347 102.425 95.1915 102.559 94.5955 102.555 93.9927L102.555 87.2947 104.69 87.2947 104.69 94.0663C104.707 95.0082 104.479 95.9383 104.027 96.7651 103.604 97.5574 102.955 98.2063 102.163 98.6298 101.339 99.0807 100.415 99.317 99.4762 99.317 98.5373 99.317 97.6133 99.0807 96.7897 98.6298Z" fill="#495565" fill-rule="nonzero" fill-opacity="1" transform="matrix(1.00402 0 0 1 410 94.7064)"/><path d="M108.517 98.9487C107.853 98.7397 107.23 98.4158 106.677 97.9919L107.56 96.6179C108.024 96.9558 108.537 97.2205 109.082 97.403 109.568 97.5885 110.082 97.6881 110.603 97.6975 110.989 97.7141 111.372 97.6204 111.707 97.4276 111.832 97.3496 111.936 97.2414 112.009 97.1128 112.082 96.9842 112.121 96.8392 112.124 96.6915 112.131 96.5357 112.09 96.3819 112.007 96.2502 111.923 96.1184 111.802 96.0156 111.658 95.9555 111.201 95.7452 110.724 95.5808 110.235 95.4648 109.641 95.3102 109.059 95.1135 108.493 94.876 108.082 94.7045 107.726 94.4245 107.462 94.0663 107.202 93.6934 107.073 93.2446 107.094 92.7905 107.083 92.2846 107.229 91.7875 107.511 91.3675 107.795 90.9224 108.205 90.5721 108.689 90.3616 109.24 90.1302 109.833 90.0134 110.431 90.0181 111.032 90.0203 111.628 90.1197 112.198 90.3125 112.776 90.495 113.328 90.7504 113.841 91.0731L113.007 92.4961C112.597 92.2318 112.161 92.0098 111.707 91.8336 111.296 91.6928 110.865 91.6182 110.431 91.6128 110.084 91.6015 109.742 91.6958 109.45 91.8827 109.324 91.9551 109.22 92.0586 109.147 92.1833 109.074 92.3082 109.034 92.4497 109.033 92.5942 109.032 92.6811 109.049 92.7674 109.082 92.8477 109.116 92.9277 109.166 93.0003 109.229 93.0604 109.391 93.1882 109.573 93.2876 109.769 93.3548L110.922 93.7474C111.473 93.8899 112.014 94.0702 112.541 94.2871 112.954 94.4775 113.322 94.7535 113.621 95.0968 113.926 95.4972 114.083 95.9918 114.062 96.4953 114.077 96.8863 113.997 97.2752 113.831 97.6295 113.664 97.9838 113.416 98.2932 113.105 98.5316 112.397 99.0584 111.534 99.3347 110.652 99.3168 109.924 99.3226 109.201 99.198 108.517 98.9487Z" fill="#495565" fill-rule="nonzero" fill-opacity="1" transform="matrix(1.00402 0 0 1 410 94.7064)"/><path d="M121.447 97.3783C121.865 97.2257 122.248 96.9923 122.576 96.6913L123.778 97.9426C123.325 98.3825 122.78 98.7176 122.183 98.924 121.54 99.17 120.86 99.303 120.171 99.3165 119.314 99.33 118.468 99.1185 117.718 98.7031 117.012 98.3123 116.426 97.7352 116.025 97.0348 115.621 96.3066 115.409 95.4876 115.409 94.6549 115.409 93.8224 115.621 93.0032 116.025 92.275 116.415 91.5827 116.982 91.0068 117.669 90.6067 118.374 90.2153 119.169 90.0124 119.975 90.0178 120.582 89.9879 121.188 90.0986 121.746 90.3412 122.303 90.5838 122.797 90.9516 123.189 91.4163 124.004 92.5299 124.411 93.8902 124.342 95.2683L117.522 95.2683C117.617 95.9234 117.927 96.5279 118.405 96.9857 118.867 97.4062 119.473 97.6344 120.098 97.6236 120.559 97.6261 121.017 97.5429 121.447 97.3783ZM118.429 92.2996C117.965 92.7078 117.654 93.2613 117.546 93.8698L122.453 93.8698C122.382 93.2812 122.124 92.7309 121.717 92.2996 121.508 92.1018 121.261 91.9477 120.992 91.8466 120.722 91.7453 120.435 91.6992 120.147 91.7107 119.52 91.6803 118.906 91.8911 118.429 92.2996Z" fill="#495565" fill-rule="nonzero" fill-opacity="1" transform="matrix(1.00402 0 0 1 410 94.7064)"/><path d="M129.813 90.5333C130.391 90.1861 131.054 90.0078 131.727 90.0181L131.727 91.8091C130.891 91.7664 130.068 92.0375 129.421 92.5697 129.138 92.831 128.915 93.1504 128.766 93.5062 128.618 93.8619 128.548 94.2454 128.562 94.6306L128.562 99.0959 126.452 99.0959 126.452 90.2144 128.562 90.2144 128.562 91.9072C128.829 91.3317 129.265 90.852 129.813 90.5333Z" fill="#495565" fill-rule="nonzero" fill-opacity="1" transform="matrix(1.00402 0 0 1 410 94.7064)"/><path d="M134.941 98.9487C134.277 98.7397 133.654 98.4158 133.101 97.9919L134.009 96.6179C134.47 96.9607 134.984 97.2259 135.53 97.403 136.007 97.5902 136.514 97.6898 137.027 97.6975 137.421 97.7173 137.813 97.6239 138.155 97.4276 138.278 97.3483 138.378 97.2392 138.447 97.1103 138.516 96.9815 138.55 96.8375 138.548 96.6915 138.554 96.5392 138.515 96.3885 138.436 96.2578 138.358 96.127 138.243 96.022 138.106 95.9555 137.646 95.7531 137.17 95.5889 136.683 95.4648 136.08 95.3137 135.49 95.1166 134.917 94.876 134.506 94.7045 134.15 94.4245 133.886 94.0663 133.626 93.6934 133.497 93.2446 133.518 92.7905 133.507 92.2846 133.653 91.7875 133.935 91.3675 134.231 90.933 134.638 90.5858 135.113 90.3616 135.664 90.1302 136.257 90.0134 136.855 90.0181 137.456 90.0203 138.052 90.1197 138.621 90.3125 139.201 90.4901 139.754 90.746 140.265 91.0731L139.431 92.4961C139.024 92.2272 138.588 92.0049 138.131 91.8336 137.72 91.6914 137.289 91.6168 136.855 91.6128 136.509 91.6045 136.167 91.6985 135.874 91.8827 135.751 91.9561 135.651 92.0606 135.582 92.1857 135.513 92.3106 135.478 92.4514 135.481 92.5942 135.476 92.6796 135.488 92.7652 135.518 92.8455 135.547 92.9257 135.593 92.999 135.653 93.0604 135.818 93.1831 136 93.2819 136.193 93.3548L137.37 93.7474C137.92 93.8975 138.46 94.0776 138.989 94.2871 139.395 94.478 139.755 94.754 140.044 95.0968 140.35 95.4972 140.506 95.9918 140.486 96.4953 140.501 96.8863 140.421 97.2752 140.255 97.6295 140.088 97.9838 139.84 98.2932 139.529 98.5316 138.824 99.0636 137.959 99.3403 137.076 99.3168 136.348 99.3226 135.625 99.198 134.941 98.9487Z" fill="#495565" fill-rule="nonzero" fill-opacity="1" transform="matrix(1.00402 0 0 1 410 94.7064)"/><path d="M481.691 97.1332 481.691 99.0959 473.521 99.0959 473.521 87.2947 475.656 87.2947 475.656 97.1086 481.691 97.1332Z" fill="#495565" fill-rule="nonzero" fill-opacity="1" transform="matrix(1.00402 0 0 1 410 94.7064)"/><path d="M485.371 98.6789C484.65 98.2802 484.049 97.6957 483.629 96.9859 483.212 96.2796 482.994 95.4749 482.994 94.6552 482.994 93.8352 483.212 93.0305 483.629 92.3243 484.056 91.6271 484.655 91.0522 485.371 90.656 486.11 90.2119 486.961 89.9906 487.825 90.0181 488.686 89.9877 489.54 90.2094 490.278 90.656 490.987 91.0583 491.586 91.632 492.02 92.3243 492.423 93.0354 492.634 93.8381 492.634 94.6552 492.634 95.4719 492.423 96.2749 492.02 96.9859 491.591 97.6872 490.992 98.2694 490.278 98.6789 489.535 99.1139 488.686 99.3347 487.825 99.3168 486.964 99.331 486.115 99.1104 485.371 98.6789ZM489.101 97.1332C489.515 96.8758 489.856 96.5115 490.082 96.0782 490.323 95.6424 490.448 95.1527 490.448 94.6552 490.448 94.1573 490.323 93.6676 490.082 93.2321 489.864 92.7991 489.523 92.4406 489.101 92.2017 488.701 91.9377 488.23 91.7971 487.751 91.7971 487.27 91.7971 486.802 91.9377 486.402 92.2017 485.987 92.4492 485.646 92.8055 485.42 93.2321 485.18 93.6676 485.052 94.1573 485.052 94.6552 485.052 95.1527 485.18 95.6424 485.42 96.0782 485.646 96.5115 485.985 96.8758 486.402 97.1332 486.802 97.3969 487.27 97.5375 487.751 97.5375 488.23 97.5375 488.701 97.3969 489.101 97.1332Z" fill="#495565" fill-rule="nonzero" fill-opacity="1" transform="matrix(1.00402 0 0 1 410 94.7064)"/><path d="M500.951 91.0485C501.294 91.4104 501.562 91.8386 501.734 92.3069 501.908 92.7751 501.981 93.2733 501.957 93.7719L501.957 99.0959 499.921 99.0959 499.921 98.1391C499.577 98.5329 499.15 98.8432 498.669 99.0469 498.166 99.2814 497.617 99.4031 497.062 99.4031 496.508 99.4031 495.958 99.2814 495.455 99.0469 494.974 98.8408 494.567 98.4985 494.278 98.0625 493.99 97.6266 493.836 97.1157 493.836 96.5934 493.826 96.0458 493.998 95.5102 494.327 95.0722 494.66 94.6134 495.109 94.2498 495.627 94.0172 496.199 93.766 496.817 93.6406 497.443 93.6492 498.282 93.6588 499.111 93.8166 499.896 94.1154L499.896 93.8946C499.913 93.3568 499.729 92.8317 499.381 92.4225 499.157 92.2233 498.897 92.0707 498.615 91.9737 498.333 91.8768 498.034 91.8376 497.737 91.8582 496.878 91.8842 496.039 92.1111 495.283 92.5206L494.547 91.0731C495.642 90.5026 496.849 90.1842 498.08 90.1408 498.596 90.0873 499.116 90.1403 499.609 90.2963 500.105 90.4526 500.561 90.7085 500.951 91.0485ZM499.086 97.3785C499.292 97.2728 499.474 97.1236 499.619 96.9418 499.761 96.7597 499.864 96.5487 499.921 96.3235L499.921 95.3176C499.224 95.0902 498.495 94.9743 497.761 94.9741 497.271 94.9616 496.787 95.1078 496.388 95.3912 496.221 95.5009 496.086 95.6503 495.99 95.826 495.897 96.0016 495.848 96.1979 495.848 96.3971 495.843 96.5917 495.887 96.7843 495.97 96.9592 496.056 97.1341 496.184 97.2863 496.338 97.403 496.706 97.6562 497.143 97.7853 497.59 97.7711 498.115 97.7784 498.632 97.6427 499.086 97.3785Z" fill="#495565" fill-rule="nonzero" fill-opacity="1" transform="matrix(1.00402 0 0 1 410 94.7064)"/><path d="M513.218 87.0984 513.218 99.0959 511.108 99.0959 511.108 97.6975C510.775 98.195 510.331 98.607 509.808 98.8997 509.261 99.1757 508.655 99.3185 508.042 99.3168 507.293 99.3288 506.557 99.1151 505.932 98.7034 505.303 98.3027 504.803 97.733 504.484 97.0596 504.113 96.2948 503.92 95.456 503.92 94.6061 503.92 93.7562 504.113 92.9174 504.484 92.1526 504.808 91.4835 505.308 90.9153 505.932 90.5088 506.511 90.1557 507.171 89.9548 507.848 89.9248 508.525 89.8947 509.2 90.0365 509.808 90.337 510.323 90.6278 510.767 91.0301 511.108 91.5147L511.108 87.0984 513.218 87.0984ZM510.323 96.7161C510.785 96.1282 511.035 95.4025 511.035 94.6552 511.035 93.9078 510.785 93.1821 510.323 92.5942 510.093 92.3445 509.81 92.1457 509.499 92.0106 509.185 91.8754 508.849 91.8069 508.508 91.8091 508.164 91.8035 507.821 91.8702 507.504 92.0056 507.188 92.1408 506.903 92.3415 506.668 92.5942 506.206 93.1821 505.956 93.9078 505.956 94.6552 505.956 95.4025 506.206 96.1282 506.668 96.7161 506.901 96.9732 507.183 97.1786 507.502 97.3179 507.818 97.4575 508.162 97.5284 508.508 97.5257 508.851 97.5348 509.192 97.4666 509.506 97.3265 509.82 97.1864 510.1 96.9779 510.323 96.7161Z" fill="#495565" fill-rule="nonzero" fill-opacity="1" transform="matrix(1.00402 0 0 1 410 94.7064)"/><path d="M521.168 87.2945 526.958 87.2945C527.586 87.2793 528.207 87.414 528.773 87.687 529.274 87.914 529.701 88.28 530 88.742 530.297 89.1937 530.449 89.7234 530.442 90.2632 530.447 90.812 530.292 91.3503 529.995 91.8123 529.698 92.2743 529.274 92.6396 528.773 92.8639 529.401 93.1521 529.949 93.5903 530.368 94.1397 530.731 94.648 530.93 95.2567 530.932 95.8816 530.95 96.4759 530.778 97.0603 530.442 97.55 530.115 98.0436 529.657 98.4347 529.117 98.6786 528.513 98.9715 527.848 99.1146 527.179 99.0957L521.168 99.0957 521.168 87.2945ZM526.443 92.2014C526.911 92.2144 527.37 92.0672 527.743 91.7843 527.897 91.6531 528.023 91.4897 528.108 91.3054 528.194 91.1212 528.239 90.9202 528.239 90.7171 528.239 90.5139 528.194 90.3132 528.108 90.129 528.023 89.9447 527.897 89.7813 527.743 89.6498 527.37 89.3672 526.911 89.22 526.443 89.2327L523.302 89.2327 523.302 92.2014 526.443 92.2014ZM526.762 97.3292C527.279 97.3439 527.785 97.1695 528.185 96.8385 528.361 96.694 528.504 96.51 528.597 96.3012 528.69 96.0926 528.734 95.865 528.724 95.6363 528.732 95.4081 528.688 95.1812 528.594 94.9726 528.501 94.7643 528.361 94.5801 528.185 94.4341 527.785 94.1034 527.279 93.9289 526.762 93.9434L523.302 93.9434 523.302 97.3292 526.762 97.3292Z" fill="#495565" fill-rule="nonzero" fill-opacity="1" transform="matrix(1.00402 0 0 1 410 94.7064)"/><path d="M539.765 91.0485C540.108 91.4104 540.376 91.8386 540.548 92.3069 540.722 92.7751 540.798 93.2733 540.771 93.7719L540.771 99.0959 538.734 99.0959 538.734 98.1391C538.396 98.5267 537.979 98.8366 537.508 99.0469 537.022 99.2652 536.495 99.382 535.962 99.3904 535.376 99.4021 534.797 99.2763 534.269 99.0223 533.788 98.8162 533.381 98.474 533.091 98.038 532.804 97.602 532.65 97.0912 532.65 96.5689 532.64 96.0212 532.812 95.4856 533.141 95.0477 533.474 94.5889 533.923 94.2253 534.441 93.9927 535.013 93.7415 535.631 93.6161 536.257 93.6247 537.096 93.6343 537.927 93.792 538.71 94.0908L538.71 93.87C538.727 93.3322 538.543 92.8072 538.195 92.3979 537.971 92.1987 537.711 92.0461 537.429 91.9492 537.147 91.8523 536.848 91.813 536.551 91.8336 535.692 91.8597 534.853 92.0866 534.097 92.4961L533.361 91.0485C534.463 90.4747 535.677 90.156 536.919 90.1162 537.432 90.0679 537.949 90.1258 538.44 90.2862 538.928 90.4467 539.38 90.706 539.765 91.0485ZM537.9 97.3785C538.106 97.2728 538.288 97.1236 538.433 96.9418 538.575 96.7597 538.678 96.5487 538.734 96.3235L538.734 95.3176C538.038 95.0902 537.309 94.9743 536.575 94.9741 536.085 94.9616 535.604 95.1078 535.201 95.3912 535.035 95.5009 534.9 95.6503 534.804 95.826 534.711 96.0016 534.662 96.1979 534.662 96.3971 534.657 96.5917 534.701 96.7843 534.787 96.9592 534.87 97.1341 534.998 97.2863 535.152 97.403 535.52 97.6562 535.957 97.7853 536.404 97.7711 536.887 97.759 537.361 97.6241 537.778 97.3785L537.9 97.3785Z" fill="#495565" fill-rule="nonzero" fill-opacity="1" transform="matrix(1.00402 0 0 1 410 94.7064)"/><path d="M543.249 87.0984 545.334 87.0984 545.334 99.0959 543.249 99.0959 543.249 87.0984Z" fill="#495565" fill-rule="nonzero" fill-opacity="1" transform="matrix(1.00402 0 0 1 410 94.7064)"/><path d="M554.486 91.0485C554.829 91.4104 555.097 91.8386 555.268 92.3069 555.443 92.7751 555.519 93.2733 555.492 93.7719L555.492 99.0959 553.455 99.0959 553.455 98.1391C553.117 98.5267 552.7 98.8366 552.229 99.0469 551.743 99.2652 551.215 99.382 550.683 99.3904 550.097 99.4021 549.518 99.2763 548.99 99.0223 548.509 98.8162 548.102 98.474 547.812 98.038 547.525 97.602 547.371 97.0912 547.371 96.5689 547.361 96.0212 547.533 95.4856 547.861 95.0477 548.195 94.5889 548.644 94.2253 549.162 93.9927 549.733 93.7415 550.352 93.6161 550.977 93.6247 551.816 93.6343 552.648 93.792 553.431 94.0908L553.431 93.87C553.448 93.3322 553.264 92.8072 552.916 92.3979 552.692 92.1987 552.432 92.0461 552.15 91.9492 551.868 91.8523 551.569 91.813 551.272 91.8336 550.413 91.8597 549.574 92.0866 548.818 92.4961L548.082 91.0485C549.184 90.4747 550.398 90.156 551.64 90.1162 552.153 90.0679 552.67 90.1258 553.161 90.2862 553.649 90.4467 554.101 90.706 554.486 91.0485ZM552.621 97.3785C552.83 97.2769 553.014 97.1292 553.159 96.9464 553.303 96.7637 553.404 96.5507 553.455 96.3235L553.455 95.3176C552.759 95.0902 552.03 94.9743 551.296 94.9741 550.813 94.9579 550.337 95.1049 549.947 95.3912 549.785 95.5043 549.652 95.6547 549.562 95.8299 549.471 96.0051 549.422 96.1996 549.422 96.3971 549.422 96.5946 549.471 96.7892 549.562 96.9644 549.652 97.1395 549.785 97.2899 549.947 97.403 550.322 97.6597 550.769 97.7887 551.223 97.7711 551.706 97.7603 552.18 97.6251 552.597 97.3785L552.621 97.3785Z" fill="#495565" fill-rule="nonzero" fill-opacity="1" transform="matrix(1.00402 0 0 1 410 94.7064)"/><path d="M564.619 90.4597C565.127 90.7392 565.539 91.167 565.796 91.6864 566.096 92.2262 566.248 92.8354 566.238 93.4529L566.238 99.0959 564.3 99.0959 564.3 93.87C564.322 93.3244 564.138 92.7903 563.784 92.3734 563.618 92.1904 563.412 92.0454 563.183 91.948 562.955 91.8506 562.707 91.8032 562.46 91.8091 561.895 91.7868 561.343 91.9796 560.914 92.3489 560.715 92.5184 560.556 92.7289 560.445 92.9662 560.335 93.2032 560.276 93.4613 560.276 93.7228L560.276 99.0959 558.191 99.0959 558.191 90.2144 560.276 90.2144 560.276 91.4166C560.57 90.9892 560.965 90.6432 561.429 90.4106 561.94 90.1378 562.509 89.9953 563.085 89.9953 563.664 89.9953 564.231 90.1378 564.741 90.4106L564.619 90.4597Z" fill="#495565" fill-rule="nonzero" fill-opacity="1" transform="matrix(1.00402 0 0 1 410 94.7064)"/><path d="M570.532 98.6789C569.82 98.2569 569.221 97.6673 568.79 96.9614 568.355 96.27 568.127 95.4709 568.127 94.6552 568.127 93.8394 568.355 93.04 568.79 92.3489 569.219 91.6474 569.818 91.0652 570.532 90.656 571.277 90.2242 572.124 90.0036 572.985 90.0181 573.62 90.0078 574.249 90.142 574.825 90.4106 575.397 90.6582 575.914 91.0166 576.346 91.4656L574.948 92.6924C574.698 92.4132 574.388 92.1948 574.04 92.0545 573.704 91.8913 573.333 91.8074 572.961 91.8091 572.489 91.8103 572.031 91.9465 571.636 92.2017 571.214 92.4406 570.873 92.7991 570.654 93.2321 570.414 93.6679 570.289 94.1573 570.289 94.6552 570.289 95.1527 570.414 95.6424 570.654 96.0782 570.868 96.52 571.211 96.8876 571.636 97.1332 572.031 97.3881 572.489 97.5245 572.961 97.5257 573.341 97.5198 573.716 97.4364 574.065 97.2804 574.418 97.117 574.737 96.8831 574.997 96.5934L576.395 97.8201C575.956 98.2853 575.431 98.6602 574.85 98.9242 574.254 99.1786 573.611 99.3121 572.961 99.3168 572.109 99.3278 571.268 99.1072 570.532 98.6789Z" fill="#495565" fill-rule="nonzero" fill-opacity="1" transform="matrix(1.00402 0 0 1 410 94.7064)"/><path d="M583.461 97.3785C583.878 97.2259 584.264 96.9923 584.59 96.6915L585.792 97.9428C585.336 98.3773 584.791 98.7115 584.197 98.9242 583.555 99.1678 582.873 99.3006 582.186 99.3168 581.329 99.3302 580.483 99.1188 579.732 98.7034 579.026 98.3123 578.442 97.7355 578.039 97.035 577.634 96.3068 577.423 95.4879 577.423 94.6552 577.423 93.8224 577.634 93.0035 578.039 92.2753 578.429 91.5829 578.996 91.0068 579.683 90.6069 580.39 90.2153 581.182 90.0127 581.989 90.0181 582.593 89.9881 583.196 90.099 583.748 90.3417 584.303 90.5843 584.791 90.9524 585.179 91.4166 586.013 92.5211 586.43 93.8857 586.357 95.2685L579.462 95.2685C579.548 95.9209 579.85 96.5254 580.321 96.9859 580.79 97.4124 581.405 97.641 582.038 97.6239 582.524 97.6356 583.008 97.5522 583.461 97.3785ZM580.444 92.2998C579.97 92.6997 579.656 93.2574 579.56 93.87L584.467 93.87C584.396 93.2814 584.139 92.7311 583.731 92.2998 583.523 92.1018 583.275 91.9477 583.005 91.8466 582.735 91.7456 582.448 91.6994 582.161 91.711 581.535 91.6803 580.92 91.8911 580.444 92.2998Z" fill="#495565" fill-rule="nonzero" fill-opacity="1" transform="matrix(1.00402 0 0 1 410 94.7064)"/><path d="M591.828 90.5333C592.404 90.1861 593.069 90.0078 593.741 90.0181L593.741 91.8091C592.905 91.7664 592.083 92.0375 591.435 92.5697 591.143 92.8256 590.913 93.1436 590.76 93.5001 590.608 93.8568 590.537 94.243 590.552 94.6306L590.552 99.0959 588.466 99.0959 588.466 90.2144 590.552 90.2144 590.552 91.9072C590.827 91.33 591.273 90.8508 591.828 90.5333Z" fill="#495565" fill-rule="nonzero" fill-opacity="1" transform="matrix(1.00402 0 0 1 410 94.7064)"/><path d="M649.166 78.5113 643.547 78.5113 642.615 80.7439 640.161 80.7439 645.068 68.9427 647.522 68.9427 652.429 80.7439 649.975 80.7439 649.166 78.5113ZM648.43 76.7693 646.369 71.8624 644.283 76.7693 648.43 76.7693Z" fill="#495565" fill-rule="nonzero" fill-opacity="1" transform="matrix(1.00402 0 0 1 410 94.7064)"/><path d="M661.654 72.2056C662.27 72.6192 662.77 73.1857 663.101 73.8494 663.455 74.6188 663.639 75.456 663.639 76.3029 663.639 77.1501 663.455 77.9872 663.101 78.7564 662.775 79.4249 662.274 79.9929 661.654 80.4002 661.085 80.7641 660.429 80.9733 659.755 81.0077 659.078 81.0423 658.405 80.9005 657.802 80.5965 657.264 80.3286 656.806 79.9223 656.477 79.4188L656.477 83.6633 654.367 83.6633 654.367 71.813 656.477 71.813 656.477 73.187C656.815 72.6973 657.269 72.3008 657.802 72.0338 658.339 71.7554 658.938 71.6123 659.544 71.6168 660.29 71.6077 661.021 71.8118 661.654 72.2056ZM660.82 78.3148C661.281 77.7271 661.531 77.0014 661.531 76.2538 661.531 75.5065 661.281 74.7808 660.82 74.1929 660.584 73.9402 660.299 73.7397 659.983 73.6043 659.666 73.4691 659.323 73.4022 658.979 73.4078 658.641 73.3995 658.307 73.4654 657.996 73.6011 657.686 73.7368 657.412 73.939 657.188 74.1929 656.727 74.7808 656.477 75.5065 656.477 76.2538 656.477 77.0014 656.727 77.7271 657.188 78.3148 657.407 78.576 657.682 78.7846 657.991 78.9249 658.302 79.065 658.638 79.1332 658.979 79.1244 659.325 79.1271 659.669 79.0564 659.985 78.9168 660.304 78.7772 660.586 78.5721 660.82 78.3148Z" fill="#495565" fill-rule="nonzero" fill-opacity="1" transform="matrix(1.00402 0 0 1 410 94.7064)"/><path d="M673.062 72.2058C673.686 72.6121 674.186 73.1806 674.51 73.8497 674.88 74.6142 675.074 75.4533 675.074 76.3031 675.074 77.153 674.88 77.9919 674.51 78.7566 674.191 79.4301 673.69 79.9998 673.062 80.4004 672.444 80.8116 671.718 81.0256 670.977 81.0138 670.364 81.0155 669.758 80.8727 669.21 80.5967 668.68 80.3148 668.227 79.911 667.886 79.4191L667.886 83.6636 665.8 83.6636 665.8 71.8133 667.886 71.8133 667.886 73.1872C668.234 72.7083 668.688 72.314 669.21 72.0341 669.758 71.7581 670.364 71.6153 670.977 71.617 671.713 71.6082 672.439 71.8128 673.062 72.2058ZM672.253 78.315C672.714 77.7271 672.964 77.0014 672.964 76.2541 672.964 75.5067 672.714 74.781 672.253 74.1931 672.017 73.9404 671.733 73.7397 671.416 73.6046 671.1 73.4691 670.756 73.4022 670.413 73.408 670.072 73.4056 669.735 73.4743 669.421 73.6095 669.11 73.7447 668.828 73.9434 668.597 74.1931 668.136 74.781 667.883 75.5067 667.883 76.2541 667.883 77.0014 668.136 77.7271 668.597 78.315 668.82 78.5768 669.098 78.7853 669.412 78.9254 669.728 79.0655 670.069 79.1335 670.413 79.1246 670.759 79.1273 671.102 79.0564 671.419 78.9168 671.735 78.7775 672.02 78.5721 672.253 78.315Z" fill="#495565" fill-rule="nonzero" fill-opacity="1" transform="matrix(1.00402 0 0 1 410 94.7064)"/><path d="M677.16 68.6974 679.27 68.6974 679.27 80.6949 677.16 80.6949 677.16 68.6974Z" fill="#495565" fill-rule="nonzero" fill-opacity="1" transform="matrix(1.00402 0 0 1 410 94.7064)"/><path d="M682.287 70.1204C682.069 69.8974 681.946 69.5983 681.944 69.2862 681.944 69.1314 681.973 68.978 682.032 68.8348 682.091 68.6917 682.177 68.5617 682.287 68.452 682.398 68.334 682.53 68.2405 682.678 68.177 682.825 68.1137 682.984 68.082 683.146 68.084 683.303 68.084 683.458 68.1166 683.603 68.1799 683.745 68.2432 683.875 68.336 683.98 68.452 684.088 68.5617 684.177 68.6917 684.236 68.8348 684.294 68.978 684.324 69.1314 684.324 69.2862 684.321 69.5983 684.199 69.8974 683.98 70.1204 683.875 70.2362 683.745 70.3289 683.603 70.3922 683.458 70.4558 683.303 70.4884 683.146 70.4884 682.984 70.4904 682.825 70.4585 682.678 70.3952 682.53 70.3319 682.398 70.2381 682.287 70.1204ZM682.091 71.8133 684.201 71.8133 684.201 80.6949 682.067 80.6949 682.091 71.8133Z" fill="#495565" fill-rule="nonzero" fill-opacity="1" transform="matrix(1.00402 0 0 1 410 94.7064)"/><path d="M688.691 80.2775C687.977 79.8445 687.386 79.2365 686.974 78.511 686.539 77.8199 686.311 77.0205 686.311 76.2048 686.311 75.389 686.539 74.5899 686.974 73.8985 687.393 73.1887 687.994 72.6043 688.716 72.2056 689.459 71.774 690.308 71.5535 691.169 71.5677 691.805 71.5576 692.433 71.6918 693.009 71.9602 693.581 72.208 694.098 72.5665 694.53 73.0152L693.107 74.242C692.872 73.9574 692.568 73.7378 692.224 73.6041 691.839 73.4107 691.41 73.3227 690.978 73.3484 690.546 73.3742 690.131 73.5133 689.771 73.7513 689.361 74.0062 689.025 74.3607 688.789 74.7817 688.563 75.2221 688.446 75.7099 688.446 76.2048 688.446 76.6999 688.563 77.1876 688.789 77.6278 689.022 78.0559 689.361 78.4188 689.771 78.6828 690.173 78.9426 690.642 79.079 691.12 79.0753 691.5 79.0645 691.876 78.9814 692.224 78.83 692.577 78.6668 692.896 78.433 693.156 78.143L694.555 79.3697C694.116 79.8349 693.591 80.2101 693.009 80.4738 692.411 80.7285 691.77 80.8619 691.12 80.8664 690.271 80.8987 689.43 80.6949 688.691 80.2775Z" fill="#495565" fill-rule="nonzero" fill-opacity="1" transform="matrix(1.00402 0 0 1 410 94.7064)"/><path d="M702.651 72.6475C703 73.0059 703.27 73.4336 703.441 73.9027 703.616 74.3715 703.689 74.8718 703.657 75.3708L703.657 80.6949 701.694 80.6949 701.694 79.6644C701.356 80.052 700.936 80.3617 700.468 80.5722 699.982 80.7903 699.454 80.9073 698.922 80.9157 698.336 80.9275 697.757 80.8013 697.229 80.5477 696.751 80.3398 696.341 79.9993 696.052 79.5663 695.757 79.1237 695.602 78.6016 695.61 78.0696 695.6 77.522 695.772 76.9864 696.101 76.5485 696.434 76.0897 696.883 75.7258 697.401 75.4935 697.973 75.2445 698.593 75.1191 699.216 75.1255 700.056 75.1328 700.887 75.2906 701.67 75.5916L701.67 75.3708C701.687 74.833 701.503 74.308 701.155 73.8987 700.934 73.6971 700.674 73.543 700.392 73.4458 700.109 73.3489 699.808 73.3109 699.511 73.3344 698.652 73.3604 697.813 73.5874 697.057 73.9969L696.346 72.5493C697.438 71.9732 698.645 71.6543 699.879 71.617 700.387 71.592 700.895 71.6705 701.371 71.8476 701.847 72.0248 702.283 72.2969 702.651 72.6475ZM700.787 78.9774C700.995 78.8756 701.179 78.7279 701.324 78.5454 701.469 78.3626 701.569 78.1496 701.621 77.9224L701.621 76.9165C700.924 76.6891 700.195 76.573 699.462 76.573 698.978 76.5605 698.505 76.707 698.112 76.9901 697.943 77.0986 697.803 77.247 697.705 77.4224 697.607 77.5978 697.553 77.7949 697.548 77.996 697.543 78.1933 697.587 78.3888 697.678 78.5648 697.766 78.7404 697.899 78.8908 698.063 79.002 698.426 79.2618 698.868 79.3913 699.315 79.37 699.832 79.3803 700.343 79.2444 700.787 78.9774Z" fill="#495565" fill-rule="nonzero" fill-opacity="1" transform="matrix(1.00402 0 0 1 410 94.7064)"/><path d="M711.018 80.2042C710.76 80.4321 710.461 80.6073 710.134 80.7194 709.793 80.8659 709.425 80.949 709.055 80.9647 708.721 80.9699 708.392 80.9073 708.083 80.7807 707.777 80.6544 707.497 80.4664 707.264 80.2287 707.028 79.9858 706.847 79.697 706.729 79.3803 706.609 79.0638 706.557 78.726 706.577 78.3886L706.577 73.6043 705.276 73.6043 705.276 71.8624 706.601 71.8624 706.601 69.4089 708.613 69.4089 708.613 71.8624 710.625 71.8624 710.625 73.6043 708.613 73.6043 708.613 78.1432C708.608 78.4136 708.704 78.6764 708.883 78.8793 708.962 78.9718 709.06 79.0461 709.17 79.0969 709.281 79.1477 709.401 79.174 709.521 79.1737 709.683 79.2081 709.85 79.2081 710.012 79.1737 710.154 79.1244 710.289 79.0496 710.404 78.9529L711.018 80.2042Z" fill="#495565" fill-rule="nonzero" fill-opacity="1" transform="matrix(1.00402 0 0 1 410 94.7064)"/><path d="M713.103 70.1204C712.885 69.8974 712.762 69.5983 712.76 69.2862 712.76 69.1314 712.789 68.978 712.848 68.8348 712.907 68.6917 712.993 68.5617 713.103 68.452 713.214 68.334 713.346 68.2405 713.493 68.177 713.64 68.1137 713.8 68.082 713.962 68.084 714.119 68.084 714.273 68.1166 714.418 68.1799 714.56 68.2432 714.691 68.336 714.796 68.452 714.906 68.5617 714.992 68.6917 715.051 68.8348 715.11 68.978 715.14 69.1314 715.14 69.2862 715.137 69.5983 715.014 69.8974 714.796 70.1204 714.691 70.2362 714.56 70.3289 714.418 70.3922 714.273 70.4558 714.119 70.4884 713.962 70.4884 713.8 70.4904 713.64 70.4585 713.493 70.3952 713.346 70.3319 713.214 70.2381 713.103 70.1204ZM712.907 71.8133 714.992 71.8133 714.992 80.6949 712.907 80.6949 712.907 71.8133Z" fill="#495565" fill-rule="nonzero" fill-opacity="1" transform="matrix(1.00402 0 0 1 410 94.7064)"/><path d="M719.482 80.2778C718.768 79.8683 718.17 79.2861 717.74 78.5849 717.323 77.8785 717.105 77.0738 717.105 76.2541 717.105 75.4341 717.323 74.6294 717.74 73.9233 718.172 73.2307 718.773 72.6573 719.482 72.2549 720.221 71.8108 721.074 71.5895 721.936 71.617 722.799 71.5866 723.651 71.8084 724.389 72.2549 725.101 72.6573 725.699 73.2307 726.131 73.9233 726.548 74.6294 726.767 75.4341 726.767 76.2541 726.767 77.0738 726.548 77.8785 726.131 78.5849 725.702 79.2861 725.103 79.8683 724.389 80.2778 723.646 80.7128 722.797 80.9336 721.936 80.9157 721.074 80.9299 720.228 80.7093 719.482 80.2778ZM723.211 78.7321C723.629 78.4747 723.967 78.1104 724.193 77.6771 724.438 77.2426 724.563 76.7521 724.561 76.2541 724.561 75.759 724.443 75.2712 724.217 74.8311 723.982 74.4027 723.633 74.0464 723.211 73.8006 722.812 73.5366 722.343 73.396 721.862 73.396 721.384 73.396 720.913 73.5366 720.513 73.8006 720.098 74.0481 719.759 74.4044 719.531 74.8311 719.291 75.2665 719.166 75.7563 719.166 76.2541 719.166 76.7516 719.291 77.2413 719.531 77.6771 719.757 78.1104 720.098 78.4747 720.513 78.7321 720.913 78.9958 721.384 79.1364 721.862 79.1364 722.343 79.1364 722.812 78.9958 723.211 78.7321Z" fill="#495565" fill-rule="nonzero" fill-opacity="1" transform="matrix(1.00402 0 0 1 410 94.7064)"/><path d="M735.283 72.0586C735.79 72.3378 736.203 72.766 736.46 73.2854 736.752 73.8268 736.897 74.4365 736.877 75.0519L736.877 80.6949 734.841 80.6949 734.841 75.469C734.863 74.9231 734.679 74.3892 734.326 73.9723 734.154 73.7873 733.945 73.6411 733.712 73.544 733.479 73.4466 733.229 73.4002 732.976 73.408 732.419 73.3918 731.877 73.5844 731.455 73.9478 731.256 74.1173 731.097 74.3279 730.987 74.5651 730.876 74.8021 730.817 75.0602 730.817 75.3217L730.817 80.6949 728.683 80.6949 728.683 71.8133 730.768 71.8133 730.768 73.0155C731.055 72.5827 731.453 72.2353 731.921 72.0096 732.41 71.7426 732.959 71.6074 733.516 71.617 734.134 71.5961 734.748 71.7492 735.283 72.0586Z" fill="#495565" fill-rule="nonzero" fill-opacity="1" transform="matrix(1.00402 0 0 1 410 94.7064)"/><path d="M745.98 80.4004C745.133 80.081 744.358 79.5974 743.698 78.9774L744.949 77.4563C745.992 78.4595 747.378 79.0294 748.826 79.051 749.4 79.0832 749.967 78.9281 750.445 78.6094 750.629 78.4843 750.779 78.3157 750.882 78.119 750.982 77.9219 751.036 77.7029 751.034 77.4808 751.044 77.2023 750.946 76.9305 750.764 76.7202 750.526 76.4771 750.232 76.2995 749.905 76.205 749.388 76.006 748.853 75.8502 748.311 75.7388 747.54 75.5627 746.784 75.3247 746.053 75.0273 745.516 74.7943 745.042 74.4319 744.679 73.9723 744.336 73.4674 744.164 72.8651 744.189 72.2549 744.176 71.6006 744.363 70.9582 744.728 70.4148 745.106 69.8664 745.624 69.4265 746.225 69.139 746.883 68.8487 747.592 68.6983 748.311 68.6974 749.952 68.6733 751.542 69.2592 752.776 70.3412L751.598 71.9114C751.112 71.4887 750.568 71.1415 749.979 70.881 749.424 70.6614 748.833 70.5451 748.237 70.5375 747.724 70.5132 747.221 70.6695 746.814 70.9791 746.642 71.1023 746.5 71.2639 746.402 71.4516 746.304 71.6391 746.252 71.8469 746.25 72.0586 746.245 72.3437 746.34 72.6212 746.519 72.8437 746.775 73.0756 747.074 73.251 747.403 73.359L748.973 73.8006C750.077 73.9883 751.132 74.4064 752.064 75.0273 752.408 75.2894 752.683 75.6326 752.862 76.0264 753.043 76.4202 753.122 76.8525 753.095 77.2845 753.097 77.9526 752.911 78.6077 752.555 79.1737 752.185 79.7333 751.655 80.1691 751.034 80.425 750.263 80.7692 749.422 80.9287 748.58 80.8911 747.692 80.8764 746.811 80.7103 745.98 80.4004Z" fill="#495565" fill-rule="nonzero" fill-opacity="1" transform="matrix(1.00402 0 0 1 410 94.7064)"/><path d="M760.774 78.9774C761.186 78.8307 761.564 78.5964 761.878 78.2905L763.08 79.5417C762.627 79.9816 762.082 80.3165 761.486 80.5231 760.843 80.7692 760.161 80.9019 759.474 80.9157 758.657 80.9081 757.857 80.6973 757.143 80.3023 756.436 79.9112 755.85 79.3344 755.45 78.6339 755.013 77.8913 754.793 77.0416 754.812 76.1805 754.775 75.3205 754.986 74.4682 755.426 73.727 755.808 73.0292 756.378 72.4517 757.069 72.0586 757.774 71.6639 758.569 71.461 759.376 71.4698 759.979 71.4399 760.58 71.5508 761.135 71.7934 761.689 72.036 762.178 72.4041 762.565 72.8683 763.392 73.9763 763.799 75.3404 763.718 76.7202L756.849 76.7202C756.925 77.3756 757.229 77.9833 757.707 78.4377 758.176 78.8641 758.792 79.0927 759.425 79.0756 759.876 79.1232 760.333 79.09 760.774 78.9774ZM757.756 73.8987C757.285 74.3043 756.964 74.8578 756.849 75.469L761.756 75.469C761.675 74.8779 761.41 74.3276 760.995 73.8987 760.786 73.6985 760.541 73.543 760.271 73.4417 760.001 73.3403 759.712 73.2954 759.425 73.3099 758.814 73.2917 758.22 73.5018 757.756 73.8987Z" fill="#495565" fill-rule="nonzero" fill-opacity="1" transform="matrix(1.00402 0 0 1 410 94.7064)"/><path d="M769.141 72.1322C769.717 71.7851 770.38 71.6067 771.054 71.617L771.054 73.408C770.218 73.3653 769.396 73.6365 768.748 74.1686 768.456 74.4245 768.225 74.7425 768.073 75.099 767.919 75.4555 767.848 75.8419 767.865 76.2295L767.865 80.6949 765.779 80.6949 765.779 71.8133 767.938 71.8133 767.938 73.6043C768.176 73.0013 768.596 72.487 769.141 72.1322Z" fill="#495565" fill-rule="nonzero" fill-opacity="1" transform="matrix(1.00402 0 0 1 410 94.7064)"/><path d="M772.011 71.8133 774.244 71.8133 776.82 78.2905 779.273 71.8133 781.482 71.8133 777.752 80.6949 775.789 80.6949 772.011 71.8133Z" fill="#495565" fill-rule="nonzero" fill-opacity="1" transform="matrix(1.00402 0 0 1 410 94.7064)"/><path d="M788.548 78.9772C788.957 78.8246 789.333 78.591 789.652 78.2902L790.854 79.5415C790.4 79.9814 789.855 80.3165 789.259 80.5229 788.616 80.769 787.934 80.9017 787.247 80.9154 786.43 80.9081 785.63 80.6973 784.916 80.3021 784.207 79.9051 783.616 79.33 783.199 78.6337 782.794 77.9055 782.583 77.0865 782.583 76.2538 782.583 75.4214 782.794 74.6021 783.199 73.8739 783.596 73.1801 784.173 72.605 784.867 72.208 785.562 71.8113 786.349 71.6072 787.149 71.6168 787.755 71.5868 788.361 71.6975 788.92 71.9401 789.477 72.1828 789.971 72.5505 790.363 73.0152 791.178 74.1289 791.585 75.4891 791.516 76.8672L784.622 76.8672C784.718 77.5223 785.027 78.1268 785.505 78.5846 785.974 79.011 786.59 79.2397 787.223 79.2225 787.674 79.2198 788.123 79.1367 788.548 78.9772ZM785.53 73.8985C785.059 74.3043 784.737 74.8578 784.622 75.4687L789.529 75.4687C789.438 74.8811 789.173 74.334 788.768 73.8985 788.56 73.6983 788.314 73.5427 788.045 73.4414 787.775 73.3401 787.485 73.2954 787.198 73.3097 786.587 73.2917 785.994 73.5018 785.53 73.8985Z" fill="#495565" fill-rule="nonzero" fill-opacity="1" transform="matrix(1.00402 0 0 1 410 94.7064)"/><path d="M796.914 72.1322C797.483 71.7858 798.138 71.6072 798.803 71.617L798.803 73.408C797.974 73.3641 797.159 73.636 796.521 74.1686 796.229 74.4245 795.999 74.7422 795.847 75.099 795.692 75.4555 795.621 75.8419 795.638 76.2295L795.638 80.6949 793.553 80.6949 793.553 71.8133 795.638 71.8133 795.638 73.6043C795.896 72.9907 796.342 72.4752 796.914 72.1322Z" fill="#495565" fill-rule="nonzero" fill-opacity="1" transform="matrix(1.00402 0 0 1 410 94.7064)"/><path d="M801.894 80.5477C801.23 80.3386 800.606 80.0148 800.054 79.5908L800.962 78.2169C801.423 78.5596 801.936 78.8248 802.483 79.002 802.969 79.1914 803.484 79.2912 804.005 79.2964 804.39 79.3131 804.772 79.2193 805.109 79.0265 805.231 78.9473 805.332 78.8381 805.401 78.7093 805.469 78.5805 805.504 78.4364 805.501 78.2905 805.506 78.1381 805.467 77.9875 805.388 77.8567 805.312 77.7259 805.197 77.6209 805.059 77.5544 804.598 77.352 804.122 77.1879 803.636 77.0637 803.033 76.9123 802.442 76.7156 801.87 76.4749 801.46 76.3034 801.102 76.0234 800.839 75.6652 800.579 75.2921 800.449 74.8436 800.471 74.3894 800.459 73.8833 800.606 73.3864 800.889 72.9664 801.188 72.525 801.603 72.1766 802.091 71.9605 802.64 71.7245 803.234 71.6074 803.833 71.617 804.424 71.6192 805.013 71.7186 805.575 71.9114 806.154 72.0891 806.708 72.3449 807.219 72.672L806.409 74.095C805.997 73.8357 805.56 73.6139 805.109 73.4326 804.696 73.2937 804.267 73.2194 803.833 73.2118 803.477 73.2 803.129 73.294 802.827 73.4816 802.704 73.555 802.604 73.6595 802.535 73.7846 802.466 73.9095 802.432 74.0504 802.434 74.1931 802.434 74.28 802.449 74.3664 802.483 74.4464 802.518 74.5266 802.567 74.599 802.631 74.6593 802.783 74.7874 802.957 74.887 803.146 74.9537L804.323 75.3463C804.875 75.4888 805.415 75.6692 805.943 75.886 806.355 76.0764 806.723 76.3525 807.022 76.6957 807.309 77.1044 807.454 77.5951 807.439 78.0942 807.454 78.4853 807.373 78.8741 807.209 79.2284 807.042 79.5827 806.792 79.8921 806.482 80.1306 805.776 80.6625 804.912 80.9392 804.029 80.9157 803.3 80.9216 802.579 80.7969 801.894 80.5477Z" fill="#495565" fill-rule="nonzero" fill-opacity="1" transform="matrix(1.00402 0 0 1 410 94.7064)"/><path d="M119.705 120.809C117.12 120.838 114.606 121.661 112.504 123.166 110.402 124.671 108.813 126.786 107.953 129.225 108.59 129.683 109.197 130.183 109.769 130.721 110.138 129.38 110.772 128.126 111.634 127.033 112.496 125.941 113.569 125.033 114.788 124.363 116.007 123.693 117.348 123.274 118.733 123.131 120.117 122.989 121.515 123.125 122.846 123.533 125.536 124.437 127.767 126.356 129.064 128.881 130.361 131.406 130.621 134.337 129.789 137.051 129.423 138.395 128.79 139.652 127.929 140.746 127.068 141.841 125.996 142.752 124.777 143.425 123.557 144.098 122.215 144.518 120.83 144.663 119.444 144.807 118.044 144.671 116.712 144.264L115.853 143.945 115.853 144.755C115.89 145.294 115.89 145.835 115.853 146.374 117.452 146.892 119.139 147.084 120.813 146.939 122.487 146.794 124.116 146.315 125.602 145.531 127.089 144.747 128.403 143.672 129.468 142.372 130.532 141.072 131.326 139.571 131.801 137.959 132.863 134.691 132.608 131.138 131.092 128.055 129.575 124.972 126.916 122.601 123.68 121.447 122.429 121.031 121.121 120.816 119.803 120.809L119.705 120.809Z" fill="#218FCF" fill-rule="evenodd" fill-opacity="1" transform="matrix(1.00402 0 0 1 410 94.7064)"/><path d="M78.5115 144.755 78.5115 144.215C77.4872 144.577 76.4081 144.76 75.322 144.755 72.4524 144.755 69.7003 143.615 67.6711 141.586 65.642 139.557 64.5022 136.805 64.5022 133.935 64.5022 131.066 65.642 128.314 67.6711 126.285 69.7003 124.255 72.4524 123.115 75.322 123.115 77.4965 123.14 79.6095 123.84 81.3681 125.119 83.1265 126.399 84.4433 128.194 85.1359 130.255 85.7306 129.762 86.3533 129.303 87.0005 128.881 86.396 127.312 85.4831 125.881 84.3152 124.671 83.1474 123.462 81.7489 122.499 80.2022 121.84 78.6555 121.182 76.9923 120.84 75.3112 120.835 73.6301 120.831 71.9651 121.164 70.415 121.815 67.2692 123.231 64.7968 125.814 63.5195 129.018 62.2423 132.223 62.2604 135.798 63.5698 138.989 64.4899 141.356 66.1001 143.391 68.1915 144.83 70.2828 146.27 72.7586 147.047 75.2975 147.061 76.392 147.063 77.4818 146.914 78.536 146.62 78.5115 145.957 78.5115 145.344 78.5115 144.755Z" fill="#218FCF" fill-rule="evenodd" fill-opacity="1" transform="matrix(1.00402 0 0 1 410 94.7064)"/><path d="M140.118 158.446C137.485 155.539 134.246 153.246 130.63 151.728 127.014 150.21 123.108 149.505 119.19 149.662 117.548 149.664 115.909 149.779 114.283 150.006 114.012 150.848 113.676 151.669 113.277 152.459 115.233 152.159 117.212 152.043 119.19 152.116 122.71 151.928 126.229 152.512 129.501 153.825 132.772 155.139 135.717 157.151 138.131 159.721L138.131 182.244 140.437 182.244 140.437 158.74 140.118 158.446Z" fill="#218FCF" fill-rule="evenodd" fill-opacity="1" transform="matrix(1.00402 0 0 1 410 94.7064)"/><path d="M79.8116 149.907C78.5652 149.761 77.3123 149.679 76.0578 149.662 72.0959 149.5 68.1458 150.197 64.4786 151.705 60.8111 153.212 57.5132 155.495 54.8107 158.396L54.4917 158.715 54.4917 182.195 56.798 182.195 56.798 159.721C59.2885 157.13 62.3102 155.108 65.656 153.795 69.0018 152.483 72.5923 151.909 76.1805 152.116 77.7161 152.12 79.2493 152.234 80.7685 152.459 80.3941 151.63 80.0744 150.778 79.8116 149.907Z" fill="#218FCF" fill-rule="evenodd" fill-opacity="1" transform="matrix(1.00402 0 0 1 410 94.7064)"/><path d="M97.5014 130.77C94.7364 130.775 92.0351 131.599 89.7384 133.139 87.4419 134.679 85.6533 136.865 84.5986 139.42 83.5438 141.976 83.2703 144.787 83.8127 147.498 84.3552 150.21 85.6889 152.699 87.6458 154.652 89.6025 156.606 92.0945 157.935 94.8065 158.473 97.5186 159.011 100.329 158.732 102.883 157.673 105.437 156.614 107.62 154.821 109.155 152.522 110.691 150.223 111.511 147.52 111.511 144.755 111.504 141.044 110.025 137.487 107.399 134.865 104.772 132.243 101.213 130.77 97.5014 130.77ZM97.5014 133.028C99.8256 133.032 102.096 133.726 104.026 135.022 105.956 136.317 107.459 138.156 108.344 140.305 109.229 142.454 109.456 144.818 108.998 147.097 108.54 149.375 107.416 151.467 105.769 153.107 104.122 154.747 102.026 155.862 99.7454 156.311 97.4649 156.76 95.1024 156.522 92.9568 155.628 90.8113 154.734 88.9788 153.224 87.6917 151.288 86.4043 149.353 85.7198 147.08 85.7245 144.755 85.7245 143.21 86.0295 141.679 86.6215 140.252 87.2138 138.825 88.0815 137.528 89.1753 136.436 90.2693 135.345 91.5677 134.48 92.9964 133.89 94.425 133.301 95.956 133 97.5014 133.003" fill="#1E4489" fill-rule="evenodd" fill-opacity="1" transform="matrix(1.00402 0 0 1 410 94.7064)"/><path d="M98.1386 164.604C94.1154 164.495 90.1165 165.262 86.4183 166.85 82.7202 168.439 79.4112 170.811 76.7197 173.804L76.7197 194.536C76.7232 195.207 76.9764 195.853 77.43 196.347 77.8837 196.842 78.5051 197.149 79.1732 197.21L116.687 197.21C117.345 197.124 117.952 196.809 118.401 196.32 118.849 195.831 119.111 195.199 119.14 194.536L119.14 173.902C116.496 170.955 113.257 168.603 109.637 167 106.017 165.397 102.098 164.58 98.1386 164.604ZM98.1386 162.371C102.56 162.359 106.93 163.309 110.947 165.156 114.964 167.004 118.53 169.703 121.398 173.068L121.398 194.536C121.369 195.803 120.862 197.013 119.98 197.922 119.097 198.832 117.904 199.375 116.638 199.443L79.2223 199.443C77.9423 199.411 76.7256 198.88 75.8316 197.963 74.9378 197.046 74.4378 195.816 74.438 194.536L74.438 173.019C77.3495 169.595 80.9873 166.863 85.0871 165.021 89.1866 163.179 93.6453 162.274 98.1386 162.371Z" fill="#1E4489" fill-rule="evenodd" fill-opacity="1" transform="matrix(1.00402 0 0 1 410 94.7064)"/><path d="M319.124 120.883C313.672 121.051 308.397 122.859 303.991 126.072 299.582 129.285 296.245 133.753 294.417 138.891 291.515 137.512 288.355 136.759 285.143 136.683L284.603 136.683C279.363 136.7 274.286 138.514 270.224 141.823 266.161 145.132 263.356 149.735 262.277 154.863 260.812 154.476 259.303 154.27 257.787 154.25L257.345 154.25C252.617 154.267 248.081 156.117 244.689 159.412 241.298 162.707 239.317 167.189 239.165 171.915 239.309 176.929 241.326 181.708 244.818 185.309 248.312 188.91 253.025 191.073 258.032 191.371L260.069 191.371C272.164 191.371 329.6 191.126 341.549 191.126L344.002 191.126C354.208 191.126 362.648 181.557 362.943 169.633 363.237 157.709 355.582 148.214 345.769 147.282 344.444 132.684 333.378 121.177 319.639 120.858L319.124 120.883ZM319.124 124.146 319.713 124.146C331.587 124.416 341.45 134.524 342.653 147.625L342.898 150.3 345.597 150.545C353.84 151.33 360.097 159.648 359.852 169.609 359.606 179.57 352.491 187.912 344.174 187.912L341.72 187.912C335.734 187.912 318.191 187.912 301.164 187.912 284.137 187.912 266.3 187.912 260.24 187.912L258.204 187.912C254.038 187.654 250.117 185.86 247.2 182.878 244.28 179.896 242.572 175.937 242.404 171.768 242.505 167.88 244.117 164.184 246.896 161.464 249.678 158.743 253.407 157.212 257.296 157.194L257.615 157.194C258.859 157.205 260.096 157.379 261.295 157.709L264.657 158.642 265.368 155.256C266.352 150.887 268.793 146.983 272.287 144.184 275.783 141.384 280.126 139.855 284.603 139.848L285.07 139.848C287.822 139.895 290.533 140.531 293.019 141.713L296.208 143.258 297.509 139.971C299.098 135.433 302.028 131.485 305.909 128.647 309.791 125.808 314.44 124.213 319.246 124.072" fill="#1E4489" fill-rule="evenodd" fill-opacity="1" transform="matrix(1.00402 0 0 1 410 94.7064)"/><path d="M515.23 193.457 565.085 193.457 565.085 118.601 514.421 118.601 491.137 144.583 491.137 167.793 515.23 193.457ZM567.146 195.542 514.445 195.542 489.076 168.554 489.076 143.798 513.488 116.516 567.244 116.516 567.146 195.542Z" fill="#1E4489" fill-rule="evenodd" fill-opacity="1" transform="matrix(1.00402 0 0 1 410 94.7064)"/><path d="M532.405 132.733C532.409 133.971 532.046 135.183 531.362 136.216 530.677 137.248 529.701 138.053 528.56 138.531 527.417 139.008 526.158 139.135 524.944 138.897 523.727 138.658 522.61 138.064 521.732 137.19 520.856 136.316 520.257 135.201 520.014 133.987 519.769 132.773 519.892 131.514 520.365 130.369 520.839 129.224 521.641 128.246 522.669 127.557 523.7 126.869 524.909 126.501 526.148 126.501 526.968 126.498 527.782 126.657 528.54 126.968 529.298 127.28 529.988 127.739 530.569 128.318 531.151 128.897 531.612 129.585 531.929 130.342 532.243 131.1 532.405 131.913 532.405 132.733Z" fill="#218FCF" fill-rule="evenodd" fill-opacity="1" transform="matrix(1.00402 0 0 1 410 94.7064)"/><path d="M532.405 157.685C532.409 158.923 532.046 160.136 531.362 161.167 530.677 162.2 529.701 163.005 528.56 163.483 527.417 163.96 526.158 164.087 524.944 163.849 523.727 163.61 522.61 163.016 521.732 162.142 520.856 161.268 520.257 160.153 520.014 158.939 519.769 157.725 519.892 156.466 520.365 155.321 520.839 154.176 521.641 153.198 522.669 152.509 523.7 151.821 524.909 151.453 526.148 151.453 526.968 151.45 527.782 151.609 528.54 151.921 529.298 152.232 529.988 152.691 530.569 153.27 531.151 153.849 531.612 154.537 531.929 155.295 532.243 156.052 532.405 156.865 532.405 157.685Z" fill="#218FCF" fill-rule="evenodd" fill-opacity="1" transform="matrix(1.00402 0 0 1 410 94.7064)"/><path d="M508.189 157.685C508.189 158.918 507.823 160.122 507.139 161.147 506.454 162.172 505.48 162.971 504.342 163.443 503.203 163.914 501.95 164.038 500.742 163.797 499.533 163.557 498.421 162.963 497.55 162.091 496.679 161.22 496.086 160.11 495.845 158.901 495.605 157.692 495.728 156.439 496.199 155.3 496.672 154.162 497.469 153.188 498.495 152.503 499.521 151.819 500.725 151.453 501.957 151.453 502.776 151.45 503.588 151.609 504.347 151.921 505.102 152.233 505.792 152.692 506.371 153.271 506.95 153.85 507.409 154.539 507.72 155.296 508.034 156.054 508.191 156.866 508.189 157.685Z" fill="#218FCF" fill-rule="evenodd" fill-opacity="1" transform="matrix(1.00402 0 0 1 410 94.7064)"/><path d="M532.405 181.803C532.409 183.041 532.046 184.253 531.362 185.285 530.677 186.317 529.701 187.123 528.56 187.6 527.417 188.078 526.158 188.205 524.944 187.966 523.727 187.728 522.61 187.134 521.732 186.26 520.856 185.386 520.257 184.271 520.014 183.057 519.769 181.842 519.892 180.583 520.365 179.439 520.839 178.294 521.641 177.316 522.669 176.627 523.7 175.938 524.909 175.571 526.148 175.571 527.802 175.571 529.392 176.227 530.562 177.394 531.735 178.563 532.397 180.148 532.405 181.803Z" fill="#218FCF" fill-rule="evenodd" fill-opacity="1" transform="matrix(1.00402 0 0 1 410 94.7064)"/><path d="M519.048 140.092 509.541 149.599 510.998 151.056 520.505 141.549 519.048 140.092Z" fill="#1E4489" fill-rule="nonzero" fill-opacity="1" transform="matrix(1.00402 0 0 1 410 94.7064)"/><path d="M510.986 164.723 509.528 166.181 519.036 175.688 520.493 174.23 510.986 164.723Z" fill="#1E4489" fill-rule="nonzero" fill-opacity="1" transform="matrix(1.00402 0 0 1 410 94.7064)"/><path d="M519.009 156.433 511.525 156.433 511.525 158.102 519.009 158.102 519.009 156.433Z" fill="#1E4489" fill-rule="nonzero" fill-opacity="1" transform="matrix(1.00402 0 0 1 410 94.7064)"/><path d="M550.904 138.989 560.595 133.15 550.904 127.335 550.904 130.991 535.643 130.991 535.643 135.309 550.904 135.309 550.904 138.989Z" fill="#1E4489" fill-rule="evenodd" fill-opacity="1" transform="matrix(1.00402 0 0 1 410 94.7064)"/><path d="M550.904 155.109 535.643 155.109 535.643 159.427 550.904 159.427 550.904 163.107 560.595 157.268 550.904 151.453 550.904 155.109Z" fill="#1E4489" fill-rule="evenodd" fill-opacity="1" transform="matrix(1.00402 0 0 1 410 94.7064)"/><path d="M550.904 179.791 535.643 179.791 535.643 183.814 550.904 183.814 550.904 187.225 560.595 181.803 550.904 176.405 550.904 179.791Z" fill="#1E4489" fill-rule="evenodd" fill-opacity="1" transform="matrix(1.00402 0 0 1 410 94.7064)"/><path d="M768.306 98.1391 679.736 98.1391 679.736 122.11 768.306 122.11 768.306 98.1391ZM765.706 100.789 765.706 119.435 682.287 119.435 682.287 100.789 765.706 100.789Z" fill="#1E4489" fill-rule="evenodd" fill-opacity="1" transform="matrix(1.00402 0 0 1 410 94.7064)"/><path d="M759.965 106.456 756.849 106.456 756.849 113.743 759.965 113.743 759.965 106.456Z" fill="#1E4489" fill-rule="nonzero" fill-opacity="1" transform="matrix(1.00402 0 0 1 410 94.7064)"/><path d="M754.763 106.456 751.647 106.456 751.647 113.743 754.763 113.743 754.763 106.456Z" fill="#1E4489" fill-rule="nonzero" fill-opacity="1" transform="matrix(1.00402 0 0 1 410 94.7064)"/><path d="M749.537 106.456 746.421 106.456 746.421 113.743 749.537 113.743 749.537 106.456Z" fill="#1E4489" fill-rule="nonzero" fill-opacity="1" transform="matrix(1.00402 0 0 1 410 94.7064)"/><path d="M744.336 106.456 741.22 106.456 741.22 113.743 744.336 113.743 744.336 106.456Z" fill="#1E4489" fill-rule="nonzero" fill-opacity="1" transform="matrix(1.00402 0 0 1 410 94.7064)"/><path d="M739.11 106.456 735.994 106.456 735.994 113.743 739.11 113.743 739.11 106.456Z" fill="#1E4489" fill-rule="nonzero" fill-opacity="1" transform="matrix(1.00402 0 0 1 410 94.7064)"/><path d="M733.909 106.456 730.793 106.456 730.793 113.743 733.909 113.743 733.909 106.456Z" fill="#1E4489" fill-rule="nonzero" fill-opacity="1" transform="matrix(1.00402 0 0 1 410 94.7064)"/><path d="M728.707 106.456 725.591 106.456 725.591 113.743 728.707 113.743 728.707 106.456Z" fill="#1E4489" fill-rule="nonzero" fill-opacity="1" transform="matrix(1.00402 0 0 1 410 94.7064)"/><path d="M723.481 106.456 720.365 106.456 720.365 113.743 723.481 113.743 723.481 106.456Z" fill="#1E4489" fill-rule="nonzero" fill-opacity="1" transform="matrix(1.00402 0 0 1 410 94.7064)"/><path d="M692.249 110.112C692.253 110.632 692.104 111.142 691.819 111.577 691.532 112.012 691.125 112.352 690.644 112.555 690.166 112.757 689.638 112.813 689.125 112.714 688.615 112.616 688.146 112.368 687.776 112.001 687.405 111.635 687.153 111.168 687.05 110.658 686.947 110.148 686.998 109.619 687.194 109.138 687.393 108.657 687.729 108.245 688.164 107.955 688.595 107.666 689.103 107.511 689.623 107.511 689.967 107.508 690.308 107.573 690.627 107.702 690.943 107.832 691.233 108.022 691.478 108.264 691.721 108.506 691.915 108.794 692.047 109.111 692.18 109.428 692.249 109.768 692.249 110.112Z" fill="#218FCF" fill-rule="evenodd" fill-opacity="1" transform="matrix(1.00402 0 0 1 410 94.7064)"/><path d="M768.306 127.581 679.736 127.581 679.736 150.496 768.306 150.496 768.306 127.581ZM765.706 130.034 765.706 147.871 682.287 147.871 682.287 130.034 765.706 130.034Z" fill="#1E4489" fill-rule="evenodd" fill-opacity="1" transform="matrix(1.00402 0 0 1 410 94.7064)"/><path d="M759.965 134.794 756.849 134.794 756.849 143.136 759.965 143.136 759.965 134.794Z" fill="#1E4489" fill-rule="nonzero" fill-opacity="1" transform="matrix(1.00402 0 0 1 410 94.7064)"/><path d="M754.763 134.794 751.647 134.794 751.647 143.136 754.763 143.136 754.763 134.794Z" fill="#1E4489" fill-rule="nonzero" fill-opacity="1" transform="matrix(1.00402 0 0 1 410 94.7064)"/><path d="M749.537 134.794 746.421 134.794 746.421 143.136 749.537 143.136 749.537 134.794Z" fill="#1E4489" fill-rule="nonzero" fill-opacity="1" transform="matrix(1.00402 0 0 1 410 94.7064)"/><path d="M744.336 134.794 741.22 134.794 741.22 143.136 744.336 143.136 744.336 134.794Z" fill="#1E4489" fill-rule="nonzero" fill-opacity="1" transform="matrix(1.00402 0 0 1 410 94.7064)"/><path d="M739.11 134.794 735.994 134.794 735.994 143.136 739.11 143.136 739.11 134.794Z" fill="#1E4489" fill-rule="nonzero" fill-opacity="1" transform="matrix(1.00402 0 0 1 410 94.7064)"/><path d="M733.909 134.794 730.793 134.794 730.793 143.136 733.909 143.136 733.909 134.794Z" fill="#1E4489" fill-rule="nonzero" fill-opacity="1" transform="matrix(1.00402 0 0 1 410 94.7064)"/><path d="M728.707 134.794 725.591 134.794 725.591 143.136 728.707 143.136 728.707 134.794Z" fill="#1E4489" fill-rule="nonzero" fill-opacity="1" transform="matrix(1.00402 0 0 1 410 94.7064)"/><path d="M723.481 134.794 720.365 134.794 720.365 143.136 723.481 143.136 723.481 134.794Z" fill="#1E4489" fill-rule="nonzero" fill-opacity="1" transform="matrix(1.00402 0 0 1 410 94.7064)"/><path d="M692.249 138.45C692.253 138.97 692.104 139.48 691.819 139.915 691.532 140.35 691.125 140.69 690.644 140.892 690.166 141.095 689.638 141.15 689.125 141.052 688.615 140.953 688.146 140.705 687.776 140.339 687.405 139.973 687.153 139.505 687.05 138.995 686.947 138.486 686.998 137.957 687.194 137.475 687.393 136.994 687.729 136.583 688.164 136.293 688.595 136.004 689.103 135.849 689.623 135.849 689.967 135.846 690.308 135.911 690.627 136.04 690.943 136.169 691.233 136.36 691.478 136.602 691.721 136.844 691.915 137.132 692.047 137.449 692.18 137.766 692.249 138.106 692.249 138.45Z" fill="#218FCF" fill-rule="evenodd" fill-opacity="1" transform="matrix(1.00402 0 0 1 410 94.7064)"/><path d="M768.306 155.845 679.736 155.845 679.736 179.815 768.306 179.815 768.306 155.845ZM765.706 158.519 765.706 177.141 682.287 177.141 682.287 158.519 765.706 158.519Z" fill="#1E4489" fill-rule="evenodd" fill-opacity="1" transform="matrix(1.00402 0 0 1 410 94.7064)"/><path d="M759.965 164.187 756.849 164.187 756.849 171.474 759.965 171.474 759.965 164.187Z" fill="#1E4489" fill-rule="nonzero" fill-opacity="1" transform="matrix(1.00402 0 0 1 410 94.7064)"/><path d="M754.763 164.187 751.647 164.187 751.647 171.474 754.763 171.474 754.763 164.187Z" fill="#1E4489" fill-rule="nonzero" fill-opacity="1" transform="matrix(1.00402 0 0 1 410 94.7064)"/><path d="M749.537 164.187 746.421 164.187 746.421 171.474 749.537 171.474 749.537 164.187Z" fill="#1E4489" fill-rule="nonzero" fill-opacity="1" transform="matrix(1.00402 0 0 1 410 94.7064)"/><path d="M744.336 164.187 741.22 164.187 741.22 171.474 744.336 171.474 744.336 164.187Z" fill="#1E4489" fill-rule="nonzero" fill-opacity="1" transform="matrix(1.00402 0 0 1 410 94.7064)"/><path d="M739.11 164.187 735.994 164.187 735.994 171.474 739.11 171.474 739.11 164.187Z" fill="#1E4489" fill-rule="nonzero" fill-opacity="1" transform="matrix(1.00402 0 0 1 410 94.7064)"/><path d="M733.909 164.187 730.793 164.187 730.793 171.474 733.909 171.474 733.909 164.187Z" fill="#1E4489" fill-rule="nonzero" fill-opacity="1" transform="matrix(1.00402 0 0 1 410 94.7064)"/><path d="M728.707 164.187 725.591 164.187 725.591 171.474 728.707 171.474 728.707 164.187Z" fill="#1E4489" fill-rule="nonzero" fill-opacity="1" transform="matrix(1.00402 0 0 1 410 94.7064)"/><path d="M723.481 164.187 720.365 164.187 720.365 171.474 723.481 171.474 723.481 164.187Z" fill="#1E4489" fill-rule="nonzero" fill-opacity="1" transform="matrix(1.00402 0 0 1 410 94.7064)"/><path d="M692.249 167.818C692.253 168.338 692.104 168.848 691.819 169.283 691.532 169.718 691.125 170.058 690.644 170.261 690.166 170.463 689.638 170.519 689.125 170.42 688.615 170.322 688.146 170.074 687.776 169.707 687.405 169.341 687.153 168.873 687.05 168.363 686.947 167.854 686.998 167.324 687.194 166.843 687.393 166.362 687.729 165.951 688.164 165.661 688.595 165.372 689.103 165.217 689.623 165.217 690.315 165.217 690.98 165.49 691.471 165.977 691.961 166.464 692.241 167.126 692.249 167.818Z" fill="#218FCF" fill-rule="evenodd" fill-opacity="1" transform="matrix(1.00402 0 0 1 410 94.7064)"/><path d="M768.306 184.698 679.736 184.698 679.736 208.668 768.306 208.668 768.306 184.698ZM765.706 187.372 765.706 206.092 682.287 206.092 682.287 187.446 765.706 187.446" fill="#1E4489" fill-rule="evenodd" fill-opacity="1" transform="matrix(1.00402 0 0 1 410 94.7064)"/><path d="M759.965 193.04 756.849 193.04 756.849 200.326 759.965 200.326 759.965 193.04Z" fill="#1E4489" fill-rule="nonzero" fill-opacity="1" transform="matrix(1.00402 0 0 1 410 94.7064)"/><path d="M754.763 193.04 751.647 193.04 751.647 200.326 754.763 200.326 754.763 193.04Z" fill="#1E4489" fill-rule="nonzero" fill-opacity="1" transform="matrix(1.00402 0 0 1 410 94.7064)"/><path d="M749.537 193.04 746.421 193.04 746.421 200.326 749.537 200.326 749.537 193.04Z" fill="#1E4489" fill-rule="nonzero" fill-opacity="1" transform="matrix(1.00402 0 0 1 410 94.7064)"/><path d="M744.336 193.04 741.22 193.04 741.22 200.326 744.336 200.326 744.336 193.04Z" fill="#1E4489" fill-rule="nonzero" fill-opacity="1" transform="matrix(1.00402 0 0 1 410 94.7064)"/><path d="M739.11 193.04 735.994 193.04 735.994 200.326 739.11 200.326 739.11 193.04Z" fill="#1E4489" fill-rule="nonzero" fill-opacity="1" transform="matrix(1.00402 0 0 1 410 94.7064)"/><path d="M733.909 193.04 730.793 193.04 730.793 200.326 733.909 200.326 733.909 193.04Z" fill="#1E4489" fill-rule="nonzero" fill-opacity="1" transform="matrix(1.00402 0 0 1 410 94.7064)"/><path d="M728.707 193.04 725.591 193.04 725.591 200.326 728.707 200.326 728.707 193.04Z" fill="#1E4489" fill-rule="nonzero" fill-opacity="1" transform="matrix(1.00402 0 0 1 410 94.7064)"/><path d="M723.481 193.04 720.365 193.04 720.365 200.326 723.481 200.326 723.481 193.04Z" fill="#1E4489" fill-rule="nonzero" fill-opacity="1" transform="matrix(1.00402 0 0 1 410 94.7064)"/><path d="M692.249 196.695C692.249 197.214 692.094 197.722 691.807 198.154 691.517 198.585 691.108 198.922 690.627 199.121 690.148 199.319 689.621 199.371 689.111 199.27 688.603 199.169 688.134 198.919 687.766 198.552 687.401 198.184 687.15 197.717 687.05 197.207 686.947 196.698 686.998 196.17 687.197 195.691 687.396 195.211 687.734 194.801 688.166 194.512 688.598 194.224 689.103 194.07 689.623 194.07 690.32 194.07 690.987 194.347 691.481 194.839 691.971 195.331 692.249 195.999 692.249 196.695Z" fill="#218FCF" fill-rule="evenodd" fill-opacity="1" transform="matrix(1.00402 0 0 1 410 94.7064)"/></g></g></g></g></svg>